<svg height="512" viewBox="0 0 58 56" width="512" xmlns="http://www.w3.org/2000/svg"><g id="Page-1" fill="none" fill-rule="evenodd"><g id="055---Image-Folder"><path id="Shape" d="m51 16h-26c-.5522847 0-1-.4477153-1-1v-1c0-1.6568542-1.3431458-3-3-3h-14c-1.65685425 0-3 1.3431458-3 3v9h50v-4c0-1.6568542-1.3431458-3-3-3z" fill="#f29c1f" fill-rule="nonzero"/><path id="Shape" d="m42.7 56h5.46c1.9072274-.0015321 3.5480911-1.3493844 3.92-3.22l5.88-29.39c.116709-.5870173-.0356102-1.1954503-.4151342-1.6582372-.3795241-.4627869-.9463593-.7312821-1.5448658-.7317628h-54c-.59850648.0004807-1.16534175.2689759-1.54486577.7317628-.37952402.4627869-.53184323 1.0712199-.41513423 1.6582372l5.88 29.39c.37190885 1.8706156 2.01277256 3.2184679 3.92 3.22z" fill="#f0c419" fill-rule="nonzero"/><path id="Shape" d="m7 26h-2c-.55228475 0-1-.4477153-1-1s.44771525-1 1-1h2c.55228475 0 1 .4477153 1 1s-.44771525 1-1 1z" fill="#f9eab0" fill-rule="nonzero"/><path id="Shape" d="m27 26h-16c-.5522847 0-1-.4477153-1-1s.4477153-1 1-1h16c.5522847 0 1 .4477153 1 1s-.4477153 1-1 1z" fill="#f9eab0" fill-rule="nonzero"/><path id="Shape" d="m37.18 16h-.01" stroke="#000" stroke-linecap="round" stroke-linejoin="round" stroke-width="2"/><g fill-rule="nonzero"><path id="Shape" d="m53.44 21 .56-1.53 1.88-5.16c.3750761-1.0382735-.1620269-2.1840934-1.2-2.56l-31.95-11.63c-1.0382735-.37507615-2.1840934.16202692-2.56 1.2l-3.52 9.68-3.64 10z" fill="#a56a43"/><path id="Shape" d="m49.19 21 1.82-5 .43-1.18-27.251-9.92c-.2494328-.0903728-.5245545-.07792405-.7648063.03460607-.2402518.11253011-.4259408.31591776-.5161937.56539393l-5.648 15.5z" fill="#2fa8cc"/><path id="Shape" d="m17.99 21 10.049-5.345c.2422977-.1288061.5268799-.1523852.7870725-.0652131s.4731314.2774352.5889275.5262131l2.275 4.884z" fill="#547580"/><path id="Shape" d="m36.03 21 7.47-3.975c.2420473-.1289359.5264255-.1528066.7865801-.0660254.2601545.0867812.473252.2765976.5894199.5250254l1.644 3.516z" fill="#547580"/><circle id="Oval" cx="35.289" cy="15.332" fill="#f0c419" r="2"/></g></g></g></svg>